<mxfile host="65bd71144e">
    <diagram id="wSakgKBYP3L8iHtTeecp" name="Pagina-1">
        <mxGraphModel dx="1881" dy="761" grid="1" gridSize="10" guides="1" tooltips="1" connect="1" arrows="1" fold="1" page="1" pageScale="1" pageWidth="827" pageHeight="1169" background="none" math="0" shadow="0">
            <root>
                <mxCell id="0"/>
                <mxCell id="1" parent="0"/>
                <mxCell id="2" value="Assets" style="childLayout=tableLayout;recursiveResize=0;shadow=1;labelBackgroundColor=#FFFFFF;fontSize=12;fillColor=default;rounded=0;strokeColor=#000000;strokeWidth=10;fontColor=#000000;labelBorderColor=#000000;" vertex="1" parent="1">
                    <mxGeometry x="300" y="250" width="1839.5" height="371" as="geometry"/>
                </mxCell>
                <mxCell id="3" style="shape=tableRow;horizontal=0;startSize=0;swimlaneHead=0;swimlaneBody=0;top=0;left=0;bottom=0;right=0;dropTarget=0;collapsible=0;recursiveResize=0;expand=0;fontStyle=0;strokeColor=inherit;fillColor=#ffffff;rounded=0;labelBackgroundColor=#FFFFFF;fontColor=#000000;" vertex="1" parent="2">
                    <mxGeometry width="1839.5" height="60" as="geometry"/>
                </mxCell>
                <mxCell id="4" value="id" style="connectable=0;recursiveResize=0;strokeColor=inherit;fillColor=#A7C942;align=center;fontStyle=1;fontColor=#000000;html=1;rounded=0;labelBackgroundColor=#FFFFFF;" vertex="1" parent="3">
                    <mxGeometry width="153" height="60" as="geometry">
                        <mxRectangle width="153" height="60" as="alternateBounds"/>
                    </mxGeometry>
                </mxCell>
                <mxCell id="5" value="Modello" style="connectable=0;recursiveResize=0;strokeColor=inherit;fillColor=#A7C942;align=center;fontStyle=1;fontColor=#000000;html=1;rounded=0;labelBackgroundColor=#FFFFFF;" vertex="1" parent="3">
                    <mxGeometry x="153" width="154" height="60" as="geometry">
                        <mxRectangle width="154" height="60" as="alternateBounds"/>
                    </mxGeometry>
                </mxCell>
                <mxCell id="6" value="Porte" style="connectable=0;recursiveResize=0;strokeColor=inherit;fillColor=#A7C942;align=center;fontStyle=1;fontColor=#000000;html=1;rounded=0;labelBackgroundColor=#FFFFFF;" vertex="1" parent="3">
                    <mxGeometry x="307" width="154" height="60" as="geometry">
                        <mxRectangle width="154" height="60" as="alternateBounds"/>
                    </mxGeometry>
                </mxCell>
                <mxCell id="23" value="Alimentazione&amp;nbsp;" style="connectable=0;recursiveResize=0;strokeColor=inherit;fillColor=#A7C942;align=center;fontStyle=1;fontColor=#000000;html=1;rounded=0;labelBackgroundColor=#FFFFFF;" vertex="1" parent="3">
                    <mxGeometry x="461" width="153" height="60" as="geometry">
                        <mxRectangle width="153" height="60" as="alternateBounds"/>
                    </mxGeometry>
                </mxCell>
                <mxCell id="28" value="Codice telaio" style="connectable=0;recursiveResize=0;strokeColor=inherit;fillColor=#A7C942;align=center;fontStyle=1;fontColor=#000000;html=1;rounded=0;labelBackgroundColor=#FFFFFF;" vertex="1" parent="3">
                    <mxGeometry x="614" width="153" height="60" as="geometry">
                        <mxRectangle width="153" height="60" as="alternateBounds"/>
                    </mxGeometry>
                </mxCell>
                <mxCell id="33" value="Colore" style="connectable=0;recursiveResize=0;strokeColor=inherit;fillColor=#A7C942;align=center;fontStyle=1;fontColor=#000000;html=1;rounded=0;labelBackgroundColor=#FFFFFF;" vertex="1" parent="3">
                    <mxGeometry x="767" width="152" height="60" as="geometry">
                        <mxRectangle width="152" height="60" as="alternateBounds"/>
                    </mxGeometry>
                </mxCell>
                <mxCell id="51" value="Produttore" style="connectable=0;recursiveResize=0;strokeColor=inherit;fillColor=#A7C942;align=center;fontStyle=1;fontColor=#000000;html=1;rounded=0;labelBackgroundColor=#FFFFFF;" vertex="1" parent="3">
                    <mxGeometry x="919" width="154" height="60" as="geometry">
                        <mxRectangle width="154" height="60" as="alternateBounds"/>
                    </mxGeometry>
                </mxCell>
                <mxCell id="46" value="Marca" style="connectable=0;recursiveResize=0;strokeColor=inherit;fillColor=#A7C942;align=center;fontStyle=1;fontColor=#000000;html=1;rounded=0;labelBackgroundColor=#FFFFFF;" vertex="1" parent="3">
                    <mxGeometry x="1073" width="154" height="60" as="geometry">
                        <mxRectangle width="154" height="60" as="alternateBounds"/>
                    </mxGeometry>
                </mxCell>
                <mxCell id="61" value="Optinal" style="connectable=0;recursiveResize=0;strokeColor=inherit;fillColor=#A7C942;align=center;fontStyle=1;fontColor=#000000;html=1;rounded=0;labelBackgroundColor=#FFFFFF;" vertex="1" parent="3">
                    <mxGeometry x="1227" width="153" height="60" as="geometry">
                        <mxRectangle width="153" height="60" as="alternateBounds"/>
                    </mxGeometry>
                </mxCell>
                <mxCell id="66" value="Prezzo" style="connectable=0;recursiveResize=0;strokeColor=inherit;fillColor=#A7C942;align=center;fontStyle=1;fontColor=#000000;html=1;rounded=0;labelBackgroundColor=#FFFFFF;" vertex="1" parent="3">
                    <mxGeometry x="1380" width="153" height="60" as="geometry">
                        <mxRectangle width="153" height="60" as="alternateBounds"/>
                    </mxGeometry>
                </mxCell>
                <mxCell id="71" value="Anno" style="connectable=0;recursiveResize=0;strokeColor=inherit;fillColor=#A7C942;align=center;fontStyle=1;fontColor=#000000;html=1;rounded=0;labelBackgroundColor=#FFFFFF;" vertex="1" parent="3">
                    <mxGeometry x="1533" width="153" height="60" as="geometry">
                        <mxRectangle width="153" height="60" as="alternateBounds"/>
                    </mxGeometry>
                </mxCell>
                <mxCell id="76" value="totale acquisto" style="connectable=0;recursiveResize=0;strokeColor=inherit;fillColor=#A7C942;align=center;fontStyle=1;fontColor=#000000;html=1;rounded=0;labelBackgroundColor=#FFFFFF;" vertex="1" parent="3">
                    <mxGeometry x="1686" width="154" height="60" as="geometry">
                        <mxRectangle width="154" height="60" as="alternateBounds"/>
                    </mxGeometry>
                </mxCell>
                <mxCell id="7" value="" style="shape=tableRow;horizontal=0;startSize=0;swimlaneHead=0;swimlaneBody=0;top=0;left=0;bottom=0;right=0;dropTarget=0;collapsible=0;recursiveResize=0;expand=0;fontStyle=0;strokeColor=inherit;fillColor=#ffffff;labelBackgroundColor=#FFFFFF;rounded=0;fontColor=#000000;" vertex="1" parent="2">
                    <mxGeometry y="60" width="1839.5" height="130" as="geometry"/>
                </mxCell>
                <mxCell id="8" value="&lt;font&gt;INT&lt;br&gt;NOT NULL&lt;br&gt;DEFAULT&lt;br&gt;UNIQUE&lt;br&gt;AUTO_INCREMENT&amp;nbsp;&lt;/font&gt;" style="connectable=0;recursiveResize=0;strokeColor=inherit;fillColor=inherit;align=center;whiteSpace=wrap;html=1;rounded=0;labelBackgroundColor=#FFFFFF;fontColor=#000000;" vertex="1" parent="7">
                    <mxGeometry width="153" height="130" as="geometry">
                        <mxRectangle width="153" height="130" as="alternateBounds"/>
                    </mxGeometry>
                </mxCell>
                <mxCell id="9" value="&lt;font&gt;CHAR(50)&lt;br&gt;TEXT&lt;br&gt;NOTNULL&lt;br&gt;&lt;/font&gt;" style="connectable=0;recursiveResize=0;strokeColor=inherit;fillColor=inherit;align=center;whiteSpace=wrap;html=1;rounded=0;labelBackgroundColor=#FFFFFF;fontColor=#000000;" vertex="1" parent="7">
                    <mxGeometry x="153" width="154" height="130" as="geometry">
                        <mxRectangle width="154" height="130" as="alternateBounds"/>
                    </mxGeometry>
                </mxCell>
                <mxCell id="10" value="&lt;span style=&quot;font-family: &amp;quot;SÃ¶hne Mono&amp;quot;, Monaco, &amp;quot;Andale Mono&amp;quot;, &amp;quot;Ubuntu Mono&amp;quot;, monospace; font-size: 14px; text-align: left;&quot;&gt;&lt;font style=&quot;&quot;&gt;TINYINT UNSIGNED&lt;br&gt;NULL&lt;br&gt;&lt;/font&gt;&lt;/span&gt;" style="connectable=0;recursiveResize=0;strokeColor=inherit;fillColor=inherit;align=center;whiteSpace=wrap;html=1;rounded=0;labelBackgroundColor=#FFFFFF;fontColor=#000000;" vertex="1" parent="7">
                    <mxGeometry x="307" width="154" height="130" as="geometry">
                        <mxRectangle width="154" height="130" as="alternateBounds"/>
                    </mxGeometry>
                </mxCell>
                <mxCell id="24" value="&lt;span style=&quot;border: 0px solid rgb(227, 227, 227); box-sizing: border-box; --tw-border-spacing-x: 0; --tw-border-spacing-y: 0; --tw-translate-x: 0; --tw-translate-y: 0; --tw-rotate: 0; --tw-skew-x: 0; --tw-skew-y: 0; --tw-scale-x: 1; --tw-scale-y: 1; --tw-pan-x: ; --tw-pan-y: ; --tw-pinch-zoom: ; --tw-scroll-snap-strictness: proximity; --tw-gradient-from-position: ; --tw-gradient-via-position: ; --tw-gradient-to-position: ; --tw-ordinal: ; --tw-slashed-zero: ; --tw-numeric-figure: ; --tw-numeric-spacing: ; --tw-numeric-fraction: ; --tw-ring-inset: ; --tw-ring-offset-width: 0px; --tw-ring-offset-color: #fff; --tw-ring-color: rgba(69,89,164,.5); --tw-ring-offset-shadow: 0 0 transparent; --tw-ring-shadow: 0 0 transparent; --tw-shadow: 0 0 transparent; --tw-shadow-colored: 0 0 transparent; --tw-blur: ; --tw-brightness: ; --tw-contrast: ; --tw-grayscale: ; --tw-hue-rotate: ; --tw-invert: ; --tw-saturate: ; --tw-sepia: ; --tw-drop-shadow: ; --tw-backdrop-blur: ; --tw-backdrop-brightness: ; --tw-backdrop-contrast: ; --tw-backdrop-grayscale: ; --tw-backdrop-hue-rotate: ; --tw-backdrop-invert: ; --tw-backdrop-opacity: ; --tw-backdrop-saturate: ; --tw-backdrop-sepia: ; font-family: &amp;quot;SÃ¶hne Mono&amp;quot;, Monaco, &amp;quot;Andale Mono&amp;quot;, &amp;quot;Ubuntu Mono&amp;quot;, monospace; font-size: 14px; text-align: left;&quot; class=&quot;hljs-type&quot;&gt;VARCHAR&lt;/span&gt;&lt;span style=&quot;font-family: &amp;quot;SÃ¶hne Mono&amp;quot;, Monaco, &amp;quot;Andale Mono&amp;quot;, &amp;quot;Ubuntu Mono&amp;quot;, monospace; font-size: 14px; text-align: left;&quot;&gt;(10&lt;/span&gt;&lt;span style=&quot;font-family: &amp;quot;SÃ¶hne Mono&amp;quot;, Monaco, &amp;quot;Andale Mono&amp;quot;, &amp;quot;Ubuntu Mono&amp;quot;, monospace; font-size: 14px; text-align: left;&quot;&gt;)&lt;br&gt;NOT NULL&lt;br&gt;&lt;/span&gt;" style="connectable=0;recursiveResize=0;strokeColor=inherit;fillColor=inherit;align=center;whiteSpace=wrap;html=1;rounded=0;labelBackgroundColor=#FFFFFF;fontColor=#000000;" vertex="1" parent="7">
                    <mxGeometry x="461" width="153" height="130" as="geometry">
                        <mxRectangle width="153" height="130" as="alternateBounds"/>
                    </mxGeometry>
                </mxCell>
                <mxCell id="29" value="&lt;font style=&quot;&quot;&gt;&lt;span style=&quot;border: 0px solid rgb(227, 227, 227); box-sizing: border-box; --tw-border-spacing-x: 0; --tw-border-spacing-y: 0; --tw-translate-x: 0; --tw-translate-y: 0; --tw-rotate: 0; --tw-skew-x: 0; --tw-skew-y: 0; --tw-scale-x: 1; --tw-scale-y: 1; --tw-pan-x: ; --tw-pan-y: ; --tw-pinch-zoom: ; --tw-scroll-snap-strictness: proximity; --tw-gradient-from-position: ; --tw-gradient-via-position: ; --tw-gradient-to-position: ; --tw-ordinal: ; --tw-slashed-zero: ; --tw-numeric-figure: ; --tw-numeric-spacing: ; --tw-numeric-fraction: ; --tw-ring-inset: ; --tw-ring-offset-width: 0px; --tw-ring-offset-color: #fff; --tw-ring-color: rgba(69,89,164,.5); --tw-ring-offset-shadow: 0 0 transparent; --tw-ring-shadow: 0 0 transparent; --tw-shadow: 0 0 transparent; --tw-shadow-colored: 0 0 transparent; --tw-blur: ; --tw-brightness: ; --tw-contrast: ; --tw-grayscale: ; --tw-hue-rotate: ; --tw-invert: ; --tw-saturate: ; --tw-sepia: ; --tw-drop-shadow: ; --tw-backdrop-blur: ; --tw-backdrop-brightness: ; --tw-backdrop-contrast: ; --tw-backdrop-grayscale: ; --tw-backdrop-hue-rotate: ; --tw-backdrop-invert: ; --tw-backdrop-opacity: ; --tw-backdrop-saturate: ; --tw-backdrop-sepia: ; font-family: &amp;quot;SÃ¶hne Mono&amp;quot;, Monaco, &amp;quot;Andale Mono&amp;quot;, &amp;quot;Ubuntu Mono&amp;quot;, monospace; font-size: 14px; text-align: left;&quot; class=&quot;hljs-type&quot;&gt;VARCHAR&lt;/span&gt;&lt;span style=&quot;font-family: &amp;quot;SÃ¶hne Mono&amp;quot;, Monaco, &amp;quot;Andale Mono&amp;quot;, &amp;quot;Ubuntu Mono&amp;quot;, monospace; font-size: 14px; text-align: left;&quot;&gt;(&lt;/span&gt;&lt;span style=&quot;border: 0px solid rgb(227, 227, 227); box-sizing: border-box; --tw-border-spacing-x: 0; --tw-border-spacing-y: 0; --tw-translate-x: 0; --tw-translate-y: 0; --tw-rotate: 0; --tw-skew-x: 0; --tw-skew-y: 0; --tw-scale-x: 1; --tw-scale-y: 1; --tw-pan-x: ; --tw-pan-y: ; --tw-pinch-zoom: ; --tw-scroll-snap-strictness: proximity; --tw-gradient-from-position: ; --tw-gradient-via-position: ; --tw-gradient-to-position: ; --tw-ordinal: ; --tw-slashed-zero: ; --tw-numeric-figure: ; --tw-numeric-spacing: ; --tw-numeric-fraction: ; --tw-ring-inset: ; --tw-ring-offset-width: 0px; --tw-ring-offset-color: #fff; --tw-ring-color: rgba(69,89,164,.5); --tw-ring-offset-shadow: 0 0 transparent; --tw-ring-shadow: 0 0 transparent; --tw-shadow: 0 0 transparent; --tw-shadow-colored: 0 0 transparent; --tw-blur: ; --tw-brightness: ; --tw-contrast: ; --tw-grayscale: ; --tw-hue-rotate: ; --tw-invert: ; --tw-saturate: ; --tw-sepia: ; --tw-drop-shadow: ; --tw-backdrop-blur: ; --tw-backdrop-brightness: ; --tw-backdrop-contrast: ; --tw-backdrop-grayscale: ; --tw-backdrop-hue-rotate: ; --tw-backdrop-invert: ; --tw-backdrop-opacity: ; --tw-backdrop-saturate: ; --tw-backdrop-sepia: ; font-family: &amp;quot;SÃ¶hne Mono&amp;quot;, Monaco, &amp;quot;Andale Mono&amp;quot;, &amp;quot;Ubuntu Mono&amp;quot;, monospace; font-size: 14px; text-align: left;&quot; class=&quot;hljs-number&quot;&gt;17&lt;/span&gt;&lt;span style=&quot;font-family: &amp;quot;SÃ¶hne Mono&amp;quot;, Monaco, &amp;quot;Andale Mono&amp;quot;, &amp;quot;Ubuntu Mono&amp;quot;, monospace; font-size: 14px; text-align: left;&quot;&gt;)&lt;br&gt;NOTNULL&lt;br&gt;UNIQUE&lt;br&gt;&lt;/span&gt;&lt;/font&gt;" style="connectable=0;recursiveResize=0;strokeColor=inherit;fillColor=inherit;align=center;whiteSpace=wrap;html=1;rounded=0;labelBackgroundColor=#FFFFFF;fontColor=#000000;" vertex="1" parent="7">
                    <mxGeometry x="614" width="153" height="130" as="geometry">
                        <mxRectangle width="153" height="130" as="alternateBounds"/>
                    </mxGeometry>
                </mxCell>
                <mxCell id="34" value="&lt;span style=&quot;border: 0px solid rgb(227, 227, 227); box-sizing: border-box; --tw-border-spacing-x: 0; --tw-border-spacing-y: 0; --tw-translate-x: 0; --tw-translate-y: 0; --tw-rotate: 0; --tw-skew-x: 0; --tw-skew-y: 0; --tw-scale-x: 1; --tw-scale-y: 1; --tw-pan-x: ; --tw-pan-y: ; --tw-pinch-zoom: ; --tw-scroll-snap-strictness: proximity; --tw-gradient-from-position: ; --tw-gradient-via-position: ; --tw-gradient-to-position: ; --tw-ordinal: ; --tw-slashed-zero: ; --tw-numeric-figure: ; --tw-numeric-spacing: ; --tw-numeric-fraction: ; --tw-ring-inset: ; --tw-ring-offset-width: 0px; --tw-ring-offset-color: #fff; --tw-ring-color: rgba(69,89,164,.5); --tw-ring-offset-shadow: 0 0 transparent; --tw-ring-shadow: 0 0 transparent; --tw-shadow: 0 0 transparent; --tw-shadow-colored: 0 0 transparent; --tw-blur: ; --tw-brightness: ; --tw-contrast: ; --tw-grayscale: ; --tw-hue-rotate: ; --tw-invert: ; --tw-saturate: ; --tw-sepia: ; --tw-drop-shadow: ; --tw-backdrop-blur: ; --tw-backdrop-brightness: ; --tw-backdrop-contrast: ; --tw-backdrop-grayscale: ; --tw-backdrop-hue-rotate: ; --tw-backdrop-invert: ; --tw-backdrop-opacity: ; --tw-backdrop-saturate: ; --tw-backdrop-sepia: ; font-family: &amp;quot;SÃ¶hne Mono&amp;quot;, Monaco, &amp;quot;Andale Mono&amp;quot;, &amp;quot;Ubuntu Mono&amp;quot;, monospace; font-size: 14px; text-align: left;&quot; class=&quot;hljs-type&quot;&gt;VARCHAR&lt;/span&gt;&lt;span style=&quot;font-family: &amp;quot;SÃ¶hne Mono&amp;quot;, Monaco, &amp;quot;Andale Mono&amp;quot;, &amp;quot;Ubuntu Mono&amp;quot;, monospace; font-size: 14px; text-align: left;&quot;&gt;(20&lt;/span&gt;&lt;span style=&quot;font-family: &amp;quot;SÃ¶hne Mono&amp;quot;, Monaco, &amp;quot;Andale Mono&amp;quot;, &amp;quot;Ubuntu Mono&amp;quot;, monospace; font-size: 14px; text-align: left;&quot;&gt;)&lt;br&gt;NULL&lt;br&gt;&lt;/span&gt;" style="connectable=0;recursiveResize=0;strokeColor=inherit;fillColor=inherit;align=center;whiteSpace=wrap;html=1;rounded=0;labelBackgroundColor=#FFFFFF;fontColor=#000000;" vertex="1" parent="7">
                    <mxGeometry x="767" width="152" height="130" as="geometry">
                        <mxRectangle width="152" height="130" as="alternateBounds"/>
                    </mxGeometry>
                </mxCell>
                <mxCell id="52" value="&lt;span style=&quot;border: 0px solid rgb(227, 227, 227); box-sizing: border-box; --tw-border-spacing-x: 0; --tw-border-spacing-y: 0; --tw-translate-x: 0; --tw-translate-y: 0; --tw-rotate: 0; --tw-skew-x: 0; --tw-skew-y: 0; --tw-scale-x: 1; --tw-scale-y: 1; --tw-pan-x: ; --tw-pan-y: ; --tw-pinch-zoom: ; --tw-scroll-snap-strictness: proximity; --tw-gradient-from-position: ; --tw-gradient-via-position: ; --tw-gradient-to-position: ; --tw-ordinal: ; --tw-slashed-zero: ; --tw-numeric-figure: ; --tw-numeric-spacing: ; --tw-numeric-fraction: ; --tw-ring-inset: ; --tw-ring-offset-width: 0px; --tw-ring-offset-color: #fff; --tw-ring-color: rgba(69,89,164,.5); --tw-ring-offset-shadow: 0 0 transparent; --tw-ring-shadow: 0 0 transparent; --tw-shadow: 0 0 transparent; --tw-shadow-colored: 0 0 transparent; --tw-blur: ; --tw-brightness: ; --tw-contrast: ; --tw-grayscale: ; --tw-hue-rotate: ; --tw-invert: ; --tw-saturate: ; --tw-sepia: ; --tw-drop-shadow: ; --tw-backdrop-blur: ; --tw-backdrop-brightness: ; --tw-backdrop-contrast: ; --tw-backdrop-grayscale: ; --tw-backdrop-hue-rotate: ; --tw-backdrop-invert: ; --tw-backdrop-opacity: ; --tw-backdrop-saturate: ; --tw-backdrop-sepia: ; font-family: &amp;quot;SÃ¶hne Mono&amp;quot;, Monaco, &amp;quot;Andale Mono&amp;quot;, &amp;quot;Ubuntu Mono&amp;quot;, monospace; font-size: 14px; text-align: left;&quot; class=&quot;hljs-type&quot;&gt;VARCHAR&lt;/span&gt;&lt;span style=&quot;font-family: &amp;quot;SÃ¶hne Mono&amp;quot;, Monaco, &amp;quot;Andale Mono&amp;quot;, &amp;quot;Ubuntu Mono&amp;quot;, monospace; font-size: 14px; text-align: left;&quot;&gt;(50&lt;/span&gt;&lt;span style=&quot;font-family: &amp;quot;SÃ¶hne Mono&amp;quot;, Monaco, &amp;quot;Andale Mono&amp;quot;, &amp;quot;Ubuntu Mono&amp;quot;, monospace; font-size: 14px; text-align: left;&quot;&gt;)&lt;br&gt;NULL&lt;br&gt;&lt;/span&gt;" style="connectable=0;recursiveResize=0;strokeColor=inherit;fillColor=inherit;align=center;whiteSpace=wrap;html=1;rounded=0;labelBackgroundColor=#FFFFFF;fontColor=#000000;" vertex="1" parent="7">
                    <mxGeometry x="919" width="154" height="130" as="geometry">
                        <mxRectangle width="154" height="130" as="alternateBounds"/>
                    </mxGeometry>
                </mxCell>
                <mxCell id="47" value="&lt;span style=&quot;border: 0px solid rgb(227, 227, 227); box-sizing: border-box; --tw-border-spacing-x: 0; --tw-border-spacing-y: 0; --tw-translate-x: 0; --tw-translate-y: 0; --tw-rotate: 0; --tw-skew-x: 0; --tw-skew-y: 0; --tw-scale-x: 1; --tw-scale-y: 1; --tw-pan-x: ; --tw-pan-y: ; --tw-pinch-zoom: ; --tw-scroll-snap-strictness: proximity; --tw-gradient-from-position: ; --tw-gradient-via-position: ; --tw-gradient-to-position: ; --tw-ordinal: ; --tw-slashed-zero: ; --tw-numeric-figure: ; --tw-numeric-spacing: ; --tw-numeric-fraction: ; --tw-ring-inset: ; --tw-ring-offset-width: 0px; --tw-ring-offset-color: #fff; --tw-ring-color: rgba(69,89,164,.5); --tw-ring-offset-shadow: 0 0 transparent; --tw-ring-shadow: 0 0 transparent; --tw-shadow: 0 0 transparent; --tw-shadow-colored: 0 0 transparent; --tw-blur: ; --tw-brightness: ; --tw-contrast: ; --tw-grayscale: ; --tw-hue-rotate: ; --tw-invert: ; --tw-saturate: ; --tw-sepia: ; --tw-drop-shadow: ; --tw-backdrop-blur: ; --tw-backdrop-brightness: ; --tw-backdrop-contrast: ; --tw-backdrop-grayscale: ; --tw-backdrop-hue-rotate: ; --tw-backdrop-invert: ; --tw-backdrop-opacity: ; --tw-backdrop-saturate: ; --tw-backdrop-sepia: ; font-family: &amp;quot;SÃ¶hne Mono&amp;quot;, Monaco, &amp;quot;Andale Mono&amp;quot;, &amp;quot;Ubuntu Mono&amp;quot;, monospace; font-size: 14px; text-align: left;&quot; class=&quot;hljs-type&quot;&gt;VARCHAR&lt;/span&gt;&lt;span style=&quot;font-family: &amp;quot;SÃ¶hne Mono&amp;quot;, Monaco, &amp;quot;Andale Mono&amp;quot;, &amp;quot;Ubuntu Mono&amp;quot;, monospace; font-size: 14px; text-align: left;&quot;&gt;(60&lt;/span&gt;&lt;span style=&quot;font-family: &amp;quot;SÃ¶hne Mono&amp;quot;, Monaco, &amp;quot;Andale Mono&amp;quot;, &amp;quot;Ubuntu Mono&amp;quot;, monospace; font-size: 14px; text-align: left;&quot;&gt;)&lt;br&gt;NOTNULL&lt;br&gt;DEFAULT(0)&lt;br&gt;&lt;/span&gt;" style="connectable=0;recursiveResize=0;strokeColor=inherit;fillColor=inherit;align=center;whiteSpace=wrap;html=1;rounded=0;labelBackgroundColor=#FFFFFF;fontColor=#000000;" vertex="1" parent="7">
                    <mxGeometry x="1073" width="154" height="130" as="geometry">
                        <mxRectangle width="154" height="130" as="alternateBounds"/>
                    </mxGeometry>
                </mxCell>
                <mxCell id="62" value="&lt;span style=&quot;border: 0px solid rgb(227, 227, 227); box-sizing: border-box; --tw-border-spacing-x: 0; --tw-border-spacing-y: 0; --tw-translate-x: 0; --tw-translate-y: 0; --tw-rotate: 0; --tw-skew-x: 0; --tw-skew-y: 0; --tw-scale-x: 1; --tw-scale-y: 1; --tw-pan-x: ; --tw-pan-y: ; --tw-pinch-zoom: ; --tw-scroll-snap-strictness: proximity; --tw-gradient-from-position: ; --tw-gradient-via-position: ; --tw-gradient-to-position: ; --tw-ordinal: ; --tw-slashed-zero: ; --tw-numeric-figure: ; --tw-numeric-spacing: ; --tw-numeric-fraction: ; --tw-ring-inset: ; --tw-ring-offset-width: 0px; --tw-ring-offset-color: #fff; --tw-ring-color: rgba(69,89,164,.5); --tw-ring-offset-shadow: 0 0 transparent; --tw-ring-shadow: 0 0 transparent; --tw-shadow: 0 0 transparent; --tw-shadow-colored: 0 0 transparent; --tw-blur: ; --tw-brightness: ; --tw-contrast: ; --tw-grayscale: ; --tw-hue-rotate: ; --tw-invert: ; --tw-saturate: ; --tw-sepia: ; --tw-drop-shadow: ; --tw-backdrop-blur: ; --tw-backdrop-brightness: ; --tw-backdrop-contrast: ; --tw-backdrop-grayscale: ; --tw-backdrop-hue-rotate: ; --tw-backdrop-invert: ; --tw-backdrop-opacity: ; --tw-backdrop-saturate: ; --tw-backdrop-sepia: ; font-family: &amp;quot;SÃ¶hne Mono&amp;quot;, Monaco, &amp;quot;Andale Mono&amp;quot;, &amp;quot;Ubuntu Mono&amp;quot;, monospace; font-size: 14px; text-align: left;&quot; class=&quot;hljs-type&quot;&gt;VARCHAR&lt;/span&gt;&lt;span style=&quot;font-family: &amp;quot;SÃ¶hne Mono&amp;quot;, Monaco, &amp;quot;Andale Mono&amp;quot;, &amp;quot;Ubuntu Mono&amp;quot;, monospace; font-size: 14px; text-align: left;&quot;&gt;(255&lt;/span&gt;&lt;span style=&quot;font-family: &amp;quot;SÃ¶hne Mono&amp;quot;, Monaco, &amp;quot;Andale Mono&amp;quot;, &amp;quot;Ubuntu Mono&amp;quot;, monospace; font-size: 14px; text-align: left;&quot;&gt;)&lt;/span&gt;&lt;span style=&quot;font-family: &amp;quot;SÃ¶hne Mono&amp;quot;, Monaco, &amp;quot;Andale Mono&amp;quot;, &amp;quot;Ubuntu Mono&amp;quot;, monospace; font-size: 14px; text-align: left;&quot;&gt;&lt;font style=&quot;&quot;&gt;&lt;br&gt;NULL&lt;br&gt;&lt;/font&gt;&lt;/span&gt;" style="connectable=0;recursiveResize=0;strokeColor=inherit;fillColor=inherit;align=center;whiteSpace=wrap;html=1;rounded=0;labelBackgroundColor=#FFFFFF;fontColor=#000000;" vertex="1" parent="7">
                    <mxGeometry x="1227" width="153" height="130" as="geometry">
                        <mxRectangle width="153" height="130" as="alternateBounds"/>
                    </mxGeometry>
                </mxCell>
                <mxCell id="67" value="&lt;font&gt;DECIMAL(10,2)&lt;br&gt;NOTNULL&lt;br&gt;&lt;/font&gt;" style="connectable=0;recursiveResize=0;strokeColor=inherit;fillColor=inherit;align=center;whiteSpace=wrap;html=1;rounded=0;labelBackgroundColor=#FFFFFF;fontColor=#000000;" vertex="1" parent="7">
                    <mxGeometry x="1380" width="153" height="130" as="geometry">
                        <mxRectangle width="153" height="130" as="alternateBounds"/>
                    </mxGeometry>
                </mxCell>
                <mxCell id="72" value="&lt;font&gt;DATE&lt;br&gt;NOTNULL&lt;br&gt;DEFAULT(0)&lt;br&gt;&lt;/font&gt;" style="connectable=0;recursiveResize=0;strokeColor=inherit;fillColor=inherit;align=center;whiteSpace=wrap;html=1;rounded=0;labelBackgroundColor=#FFFFFF;fontColor=#000000;" vertex="1" parent="7">
                    <mxGeometry x="1533" width="153" height="130" as="geometry">
                        <mxRectangle width="153" height="130" as="alternateBounds"/>
                    </mxGeometry>
                </mxCell>
                <mxCell id="77" value="&lt;font&gt;DEFAULT(0)&lt;br&gt;SMALL / MEDIUMINT&lt;br&gt;INT&lt;br&gt;&lt;/font&gt;" style="connectable=0;recursiveResize=0;strokeColor=inherit;fillColor=inherit;align=center;whiteSpace=wrap;html=1;rounded=0;labelBackgroundColor=#FFFFFF;fontColor=#000000;" vertex="1" parent="7">
                    <mxGeometry x="1686" width="154" height="130" as="geometry">
                        <mxRectangle width="154" height="130" as="alternateBounds"/>
                    </mxGeometry>
                </mxCell>
                <mxCell id="11" value="" style="shape=tableRow;horizontal=0;startSize=0;swimlaneHead=0;swimlaneBody=0;top=0;left=0;bottom=0;right=0;dropTarget=0;collapsible=0;recursiveResize=0;expand=0;fontStyle=1;strokeColor=inherit;fillColor=#EAF2D3;rounded=0;labelBackgroundColor=#FFFFFF;fontColor=#000000;" vertex="1" parent="2">
                    <mxGeometry y="190" width="1839.5" height="64" as="geometry"/>
                </mxCell>
                <mxCell id="12" value="&lt;font&gt;1&lt;/font&gt;" style="connectable=0;recursiveResize=0;strokeColor=inherit;fillColor=inherit;whiteSpace=wrap;html=1;rounded=0;labelBackgroundColor=#FFFFFF;fontColor=#000000;" vertex="1" parent="11">
                    <mxGeometry width="153" height="64" as="geometry">
                        <mxRectangle width="153" height="64" as="alternateBounds"/>
                    </mxGeometry>
                </mxCell>
                <mxCell id="13" value="&lt;font&gt;FERRARI ROMA&lt;/font&gt;" style="connectable=0;recursiveResize=0;strokeColor=inherit;fillColor=inherit;whiteSpace=wrap;html=1;rounded=0;labelBackgroundColor=#FFFFFF;fontColor=#000000;" vertex="1" parent="11">
                    <mxGeometry x="153" width="154" height="64" as="geometry">
                        <mxRectangle width="154" height="64" as="alternateBounds"/>
                    </mxGeometry>
                </mxCell>
                <mxCell id="14" value="&lt;font&gt;2&lt;/font&gt;" style="connectable=0;recursiveResize=0;strokeColor=inherit;fillColor=inherit;whiteSpace=wrap;html=1;rounded=0;labelBackgroundColor=#FFFFFF;fontColor=#000000;" vertex="1" parent="11">
                    <mxGeometry x="307" width="154" height="64" as="geometry">
                        <mxRectangle width="154" height="64" as="alternateBounds"/>
                    </mxGeometry>
                </mxCell>
                <mxCell id="25" value="&lt;font&gt;BENZINA&amp;nbsp;&lt;/font&gt;" style="connectable=0;recursiveResize=0;strokeColor=inherit;fillColor=inherit;whiteSpace=wrap;html=1;rounded=0;labelBackgroundColor=#FFFFFF;fontColor=#000000;" vertex="1" parent="11">
                    <mxGeometry x="461" width="153" height="64" as="geometry">
                        <mxRectangle width="153" height="64" as="alternateBounds"/>
                    </mxGeometry>
                </mxCell>
                <mxCell id="30" value="&lt;font&gt;YT2353DP45FT21QST&lt;/font&gt;" style="connectable=0;recursiveResize=0;strokeColor=inherit;fillColor=inherit;whiteSpace=wrap;html=1;rounded=0;labelBackgroundColor=#FFFFFF;fontColor=#000000;" vertex="1" parent="11">
                    <mxGeometry x="614" width="153" height="64" as="geometry">
                        <mxRectangle width="153" height="64" as="alternateBounds"/>
                    </mxGeometry>
                </mxCell>
                <mxCell id="35" value="&lt;font style=&quot;&quot;&gt;ROSSA&lt;/font&gt;" style="connectable=0;recursiveResize=0;strokeColor=inherit;fillColor=inherit;whiteSpace=wrap;html=1;labelBackgroundColor=#FFFFFF;rounded=0;fontColor=#000000;" vertex="1" parent="11">
                    <mxGeometry x="767" width="152" height="64" as="geometry">
                        <mxRectangle width="152" height="64" as="alternateBounds"/>
                    </mxGeometry>
                </mxCell>
                <mxCell id="53" value="ITALIANA FERRARI S.P.A" style="connectable=0;recursiveResize=0;strokeColor=inherit;fillColor=inherit;whiteSpace=wrap;html=1;rounded=0;labelBackgroundColor=#FFFFFF;fontColor=#000000;" vertex="1" parent="11">
                    <mxGeometry x="919" width="154" height="64" as="geometry">
                        <mxRectangle width="154" height="64" as="alternateBounds"/>
                    </mxGeometry>
                </mxCell>
                <mxCell id="48" value="FERRARI&amp;nbsp;" style="connectable=0;recursiveResize=0;strokeColor=inherit;fillColor=inherit;whiteSpace=wrap;html=1;rounded=0;labelBackgroundColor=#FFFFFF;fontColor=#000000;" vertex="1" parent="11">
                    <mxGeometry x="1073" width="154" height="64" as="geometry">
                        <mxRectangle width="154" height="64" as="alternateBounds"/>
                    </mxGeometry>
                </mxCell>
                <mxCell id="63" value="INTERNI IN PELLE" style="connectable=0;recursiveResize=0;strokeColor=inherit;fillColor=inherit;whiteSpace=wrap;html=1;rounded=0;labelBackgroundColor=#FFFFFF;fontColor=#000000;" vertex="1" parent="11">
                    <mxGeometry x="1227" width="153" height="64" as="geometry">
                        <mxRectangle width="153" height="64" as="alternateBounds"/>
                    </mxGeometry>
                </mxCell>
                <mxCell id="68" value="&lt;span style=&quot;color: rgb(13, 13, 13); font-family: SÃ¶hne, ui-sans-serif, system-ui, -apple-system, &amp;quot;Segoe UI&amp;quot;, Roboto, Ubuntu, Cantarell, &amp;quot;Noto Sans&amp;quot;, sans-serif, &amp;quot;Helvetica Neue&amp;quot;, Arial, &amp;quot;Apple Color Emoji&amp;quot;, &amp;quot;Segoe UI Emoji&amp;quot;, &amp;quot;Segoe UI Symbol&amp;quot;, &amp;quot;Noto Color Emoji&amp;quot;; font-size: 16px; text-align: start;&quot;&gt;250.000&lt;/span&gt;" style="connectable=0;recursiveResize=0;strokeColor=inherit;fillColor=inherit;whiteSpace=wrap;html=1;rounded=0;labelBackgroundColor=#FFFFFF;fontColor=#000000;" vertex="1" parent="11">
                    <mxGeometry x="1380" width="153" height="64" as="geometry">
                        <mxRectangle width="153" height="64" as="alternateBounds"/>
                    </mxGeometry>
                </mxCell>
                <mxCell id="73" value="2018" style="connectable=0;recursiveResize=0;strokeColor=inherit;fillColor=inherit;whiteSpace=wrap;html=1;rounded=0;labelBackgroundColor=#FFFFFF;fontColor=#000000;" vertex="1" parent="11">
                    <mxGeometry x="1533" width="153" height="64" as="geometry">
                        <mxRectangle width="153" height="64" as="alternateBounds"/>
                    </mxGeometry>
                </mxCell>
                <mxCell id="78" value="5" style="connectable=0;recursiveResize=0;strokeColor=inherit;fillColor=inherit;whiteSpace=wrap;html=1;rounded=0;labelBackgroundColor=#FFFFFF;fontColor=#000000;" vertex="1" parent="11">
                    <mxGeometry x="1686" width="154" height="64" as="geometry">
                        <mxRectangle width="154" height="64" as="alternateBounds"/>
                    </mxGeometry>
                </mxCell>
                <mxCell id="15" value="" style="shape=tableRow;horizontal=0;startSize=0;swimlaneHead=0;swimlaneBody=0;top=0;left=0;bottom=0;right=0;dropTarget=0;collapsible=0;recursiveResize=0;expand=0;fontStyle=0;strokeColor=inherit;fillColor=#ffffff;rounded=0;labelBackgroundColor=#FFFFFF;fontColor=#000000;" vertex="1" parent="2">
                    <mxGeometry y="254" width="1839.5" height="60" as="geometry"/>
                </mxCell>
                <mxCell id="16" value="&lt;font&gt;2&lt;/font&gt;" style="connectable=0;recursiveResize=0;strokeColor=inherit;fillColor=inherit;fontStyle=0;align=center;whiteSpace=wrap;html=1;rounded=0;labelBackgroundColor=#FFFFFF;fontColor=#000000;" vertex="1" parent="15">
                    <mxGeometry width="153" height="60" as="geometry">
                        <mxRectangle width="153" height="60" as="alternateBounds"/>
                    </mxGeometry>
                </mxCell>
                <mxCell id="17" value="&lt;div style=&quot;text-align: left;&quot;&gt;&lt;font face=&quot;Roboto, Helvetica Neue, Arial&quot; color=&quot;#202020&quot;&gt;&lt;span style=&quot;font-size: 16px;&quot;&gt;HURACAN&lt;/span&gt;&lt;/font&gt;&lt;/div&gt;&lt;div style=&quot;text-align: left;&quot;&gt;&lt;font face=&quot;Roboto, Helvetica Neue, Arial&quot; color=&quot;#202020&quot;&gt;&lt;span style=&quot;font-size: 16px;&quot;&gt;STERRATO&lt;/span&gt;&lt;/font&gt;&lt;/div&gt;" style="connectable=0;recursiveResize=0;strokeColor=inherit;fillColor=inherit;fontStyle=0;align=center;whiteSpace=wrap;html=1;rounded=0;labelBackgroundColor=#FFFFFF;fontColor=#000000;" vertex="1" parent="15">
                    <mxGeometry x="153" width="154" height="60" as="geometry">
                        <mxRectangle width="154" height="60" as="alternateBounds"/>
                    </mxGeometry>
                </mxCell>
                <mxCell id="18" value="2" style="connectable=0;recursiveResize=0;strokeColor=inherit;fillColor=inherit;fontStyle=0;align=center;whiteSpace=wrap;html=1;rounded=0;labelBackgroundColor=#FFFFFF;fontColor=#000000;" vertex="1" parent="15">
                    <mxGeometry x="307" width="154" height="60" as="geometry">
                        <mxRectangle width="154" height="60" as="alternateBounds"/>
                    </mxGeometry>
                </mxCell>
                <mxCell id="26" value="BENZINA" style="connectable=0;recursiveResize=0;strokeColor=inherit;fillColor=inherit;fontStyle=0;align=center;whiteSpace=wrap;html=1;rounded=0;labelBackgroundColor=#FFFFFF;fontColor=#000000;" vertex="1" parent="15">
                    <mxGeometry x="461" width="153" height="60" as="geometry">
                        <mxRectangle width="153" height="60" as="alternateBounds"/>
                    </mxGeometry>
                </mxCell>
                <mxCell id="31" value="PQR45TS78903DFVGL" style="connectable=0;recursiveResize=0;strokeColor=inherit;fillColor=inherit;fontStyle=0;align=center;whiteSpace=wrap;html=1;rounded=0;labelBackgroundColor=#FFFFFF;fontColor=#000000;" vertex="1" parent="15">
                    <mxGeometry x="614" width="153" height="60" as="geometry">
                        <mxRectangle width="153" height="60" as="alternateBounds"/>
                    </mxGeometry>
                </mxCell>
                <mxCell id="36" value="NERA" style="connectable=0;recursiveResize=0;strokeColor=inherit;fillColor=inherit;fontStyle=0;align=center;whiteSpace=wrap;html=1;rounded=0;labelBackgroundColor=#FFFFFF;fontColor=#000000;" vertex="1" parent="15">
                    <mxGeometry x="767" width="152" height="60" as="geometry">
                        <mxRectangle width="152" height="60" as="alternateBounds"/>
                    </mxGeometry>
                </mxCell>
                <mxCell id="54" value="LAMBORGHINI S.P.A" style="connectable=0;recursiveResize=0;strokeColor=inherit;fillColor=inherit;fontStyle=0;align=center;whiteSpace=wrap;html=1;rounded=0;labelBackgroundColor=#FFFFFF;fontColor=#000000;" vertex="1" parent="15">
                    <mxGeometry x="919" width="154" height="60" as="geometry">
                        <mxRectangle width="154" height="60" as="alternateBounds"/>
                    </mxGeometry>
                </mxCell>
                <mxCell id="49" value="LAMBORGHINI" style="connectable=0;recursiveResize=0;strokeColor=inherit;fillColor=inherit;fontStyle=0;align=center;whiteSpace=wrap;html=1;rounded=0;labelBackgroundColor=#FFFFFF;fontColor=#000000;" vertex="1" parent="15">
                    <mxGeometry x="1073" width="154" height="60" as="geometry">
                        <mxRectangle width="154" height="60" as="alternateBounds"/>
                    </mxGeometry>
                </mxCell>
                <mxCell id="64" value="CERCHI IN LEGA" style="connectable=0;recursiveResize=0;strokeColor=inherit;fillColor=inherit;fontStyle=0;align=center;whiteSpace=wrap;html=1;rounded=0;labelBackgroundColor=#FFFFFF;fontColor=#000000;" vertex="1" parent="15">
                    <mxGeometry x="1227" width="153" height="60" as="geometry">
                        <mxRectangle width="153" height="60" as="alternateBounds"/>
                    </mxGeometry>
                </mxCell>
                <mxCell id="69" value="&lt;span style=&quot;color: rgb(13, 13, 13); font-family: SÃ¶hne, ui-sans-serif, system-ui, -apple-system, &amp;quot;Segoe UI&amp;quot;, Roboto, Ubuntu, Cantarell, &amp;quot;Noto Sans&amp;quot;, sans-serif, &amp;quot;Helvetica Neue&amp;quot;, Arial, &amp;quot;Apple Color Emoji&amp;quot;, &amp;quot;Segoe UI Emoji&amp;quot;, &amp;quot;Segoe UI Symbol&amp;quot;, &amp;quot;Noto Color Emoji&amp;quot;; font-size: 16px; text-align: start;&quot;&gt;300.000&lt;/span&gt;" style="connectable=0;recursiveResize=0;strokeColor=inherit;fillColor=inherit;fontStyle=0;align=center;whiteSpace=wrap;html=1;rounded=0;labelBackgroundColor=#FFFFFF;fontColor=#000000;" vertex="1" parent="15">
                    <mxGeometry x="1380" width="153" height="60" as="geometry">
                        <mxRectangle width="153" height="60" as="alternateBounds"/>
                    </mxGeometry>
                </mxCell>
                <mxCell id="74" value="2020" style="connectable=0;recursiveResize=0;strokeColor=inherit;fillColor=inherit;fontStyle=0;align=center;whiteSpace=wrap;html=1;rounded=0;labelBackgroundColor=#FFFFFF;fontColor=#000000;" vertex="1" parent="15">
                    <mxGeometry x="1533" width="153" height="60" as="geometry">
                        <mxRectangle width="153" height="60" as="alternateBounds"/>
                    </mxGeometry>
                </mxCell>
                <mxCell id="79" value="3" style="connectable=0;recursiveResize=0;strokeColor=inherit;fillColor=inherit;fontStyle=0;align=center;whiteSpace=wrap;html=1;rounded=0;labelBackgroundColor=#FFFFFF;fontColor=#000000;" vertex="1" parent="15">
                    <mxGeometry x="1686" width="154" height="60" as="geometry">
                        <mxRectangle width="154" height="60" as="alternateBounds"/>
                    </mxGeometry>
                </mxCell>
                <mxCell id="19" value="" style="shape=tableRow;horizontal=0;startSize=0;swimlaneHead=0;swimlaneBody=0;top=0;left=0;bottom=0;right=0;dropTarget=0;collapsible=0;recursiveResize=0;expand=0;fontStyle=1;strokeColor=inherit;fillColor=#EAF2D3;rounded=0;labelBackgroundColor=#FFFFFF;fontColor=#000000;" vertex="1" parent="2">
                    <mxGeometry y="314" width="1839.5" height="57" as="geometry"/>
                </mxCell>
                <mxCell id="20" value="&lt;font&gt;3&lt;/font&gt;" style="connectable=0;recursiveResize=0;strokeColor=inherit;fillColor=inherit;whiteSpace=wrap;html=1;rounded=0;labelBackgroundColor=#FFFFFF;fontColor=#000000;" vertex="1" parent="19">
                    <mxGeometry width="153" height="57" as="geometry">
                        <mxRectangle width="153" height="57" as="alternateBounds"/>
                    </mxGeometry>
                </mxCell>
                <mxCell id="21" value="CLASSE G" style="connectable=0;recursiveResize=0;strokeColor=inherit;fillColor=inherit;whiteSpace=wrap;html=1;rounded=0;labelBackgroundColor=#FFFFFF;fontColor=#000000;" vertex="1" parent="19">
                    <mxGeometry x="153" width="154" height="57" as="geometry">
                        <mxRectangle width="154" height="57" as="alternateBounds"/>
                    </mxGeometry>
                </mxCell>
                <mxCell id="22" value="5" style="connectable=0;recursiveResize=0;strokeColor=inherit;fillColor=inherit;whiteSpace=wrap;html=1;rounded=0;labelBackgroundColor=#FFFFFF;fontColor=#000000;" vertex="1" parent="19">
                    <mxGeometry x="307" width="154" height="57" as="geometry">
                        <mxRectangle width="154" height="57" as="alternateBounds"/>
                    </mxGeometry>
                </mxCell>
                <mxCell id="27" value="BENZINA/DISEL" style="connectable=0;recursiveResize=0;strokeColor=inherit;fillColor=inherit;whiteSpace=wrap;html=1;rounded=0;labelBackgroundColor=#FFFFFF;fontColor=#000000;" vertex="1" parent="19">
                    <mxGeometry x="461" width="153" height="57" as="geometry">
                        <mxRectangle width="153" height="57" as="alternateBounds"/>
                    </mxGeometry>
                </mxCell>
                <mxCell id="32" value="GF56BH23SFDT178HT" style="connectable=0;recursiveResize=0;strokeColor=inherit;fillColor=inherit;whiteSpace=wrap;html=1;rounded=0;labelBackgroundColor=#FFFFFF;fontColor=#000000;" vertex="1" parent="19">
                    <mxGeometry x="614" width="153" height="57" as="geometry">
                        <mxRectangle width="153" height="57" as="alternateBounds"/>
                    </mxGeometry>
                </mxCell>
                <mxCell id="37" value="GRIGIA" style="connectable=0;recursiveResize=0;strokeColor=inherit;fillColor=inherit;whiteSpace=wrap;html=1;rounded=0;labelBackgroundColor=#FFFFFF;fontColor=#000000;" vertex="1" parent="19">
                    <mxGeometry x="767" width="152" height="57" as="geometry">
                        <mxRectangle width="152" height="57" as="alternateBounds"/>
                    </mxGeometry>
                </mxCell>
                <mxCell id="55" value="MERCEDEZ-BEZ&lt;br&gt;DAIMLER AG" style="connectable=0;recursiveResize=0;strokeColor=inherit;fillColor=inherit;whiteSpace=wrap;html=1;rounded=0;labelBackgroundColor=#FFFFFF;fontColor=#000000;" vertex="1" parent="19">
                    <mxGeometry x="919" width="154" height="57" as="geometry">
                        <mxRectangle width="154" height="57" as="alternateBounds"/>
                    </mxGeometry>
                </mxCell>
                <mxCell id="50" value="MERCEDEZ" style="connectable=0;recursiveResize=0;strokeColor=inherit;fillColor=inherit;whiteSpace=wrap;html=1;rounded=0;labelBackgroundColor=#FFFFFF;fontColor=#000000;" vertex="1" parent="19">
                    <mxGeometry x="1073" width="154" height="57" as="geometry">
                        <mxRectangle width="154" height="57" as="alternateBounds"/>
                    </mxGeometry>
                </mxCell>
                <mxCell id="65" style="connectable=0;recursiveResize=0;strokeColor=inherit;fillColor=inherit;whiteSpace=wrap;html=1;rounded=0;labelBackgroundColor=#FFFFFF;fontColor=#000000;" vertex="1" parent="19">
                    <mxGeometry x="1227" width="153" height="57" as="geometry">
                        <mxRectangle width="153" height="57" as="alternateBounds"/>
                    </mxGeometry>
                </mxCell>
                <mxCell id="70" value="&lt;span style=&quot;color: rgb(13, 13, 13); font-family: SÃ¶hne, ui-sans-serif, system-ui, -apple-system, &amp;quot;Segoe UI&amp;quot;, Roboto, Ubuntu, Cantarell, &amp;quot;Noto Sans&amp;quot;, sans-serif, &amp;quot;Helvetica Neue&amp;quot;, Arial, &amp;quot;Apple Color Emoji&amp;quot;, &amp;quot;Segoe UI Emoji&amp;quot;, &amp;quot;Segoe UI Symbol&amp;quot;, &amp;quot;Noto Color Emoji&amp;quot;; font-size: 16px; text-align: start;&quot;&gt;150.000&lt;/span&gt;" style="connectable=0;recursiveResize=0;strokeColor=inherit;fillColor=inherit;whiteSpace=wrap;html=1;rounded=0;labelBackgroundColor=#FFFFFF;fontColor=#000000;" vertex="1" parent="19">
                    <mxGeometry x="1380" width="153" height="57" as="geometry">
                        <mxRectangle width="153" height="57" as="alternateBounds"/>
                    </mxGeometry>
                </mxCell>
                <mxCell id="75" value="2021" style="connectable=0;recursiveResize=0;strokeColor=inherit;fillColor=inherit;whiteSpace=wrap;html=1;rounded=0;labelBackgroundColor=#FFFFFF;fontColor=#000000;" vertex="1" parent="19">
                    <mxGeometry x="1533" width="153" height="57" as="geometry">
                        <mxRectangle width="153" height="57" as="alternateBounds"/>
                    </mxGeometry>
                </mxCell>
                <mxCell id="80" value="2" style="connectable=0;recursiveResize=0;strokeColor=inherit;fillColor=inherit;whiteSpace=wrap;html=1;rounded=0;labelBackgroundColor=#FFFFFF;fontColor=#000000;" vertex="1" parent="19">
                    <mxGeometry x="1686" width="154" height="57" as="geometry">
                        <mxRectangle width="154" height="57" as="alternateBounds"/>
                    </mxGeometry>
                </mxCell>
                <mxCell id="40" value="Concessionario&amp;nbsp;&lt;br style=&quot;font-size: 46px;&quot;&gt;" style="text;html=1;align=center;verticalAlign=middle;resizable=0;points=[];autosize=1;strokeColor=#2D7600;fillColor=#60a917;fontStyle=1;fontSize=46;fontColor=#000000;rounded=0;labelBackgroundColor=#FFFFFF;" vertex="1" parent="1">
                    <mxGeometry x="1019.75" y="130" width="380" height="70" as="geometry"/>
                </mxCell>
            </root>
        </mxGraphModel>
    </diagram>
</mxfile>